<?xml version="1.0" encoding="UTF-8"?>
<svg id="_Шар_2" data-name="Шар 2" xmlns="http://www.w3.org/2000/svg" viewBox="0 0 58.55 58.55">
  <defs>
    <style>
      .cls-1, .cls-2 {
        fill: #282828;
      }

      .cls-2 {
        opacity: .2;
      }
    </style>
  </defs>
  <g id="_Шар_1-2" data-name="Шар 1">
    <g>
      <path class="cls-1" d="M58.55,29.27c0,16.17-13.11,29.27-29.27,29.27-8.08,0-15.4-3.27-20.7-8.58C3.28,44.68,0,37.36,0,29.27H14.63c0,4.04,1.64,7.7,4.29,10.35s6.31,4.29,10.35,4.29c8.08,0,14.63-6.56,14.63-14.64,0-4.04-1.64-7.7-4.29-10.35s-6.31-4.29-10.35-4.29V0c8.08,0,15.4,3.27,20.7,8.58,5.3,5.3,8.58,12.61,8.58,20.7Z"/>
      <polygon class="cls-2" points="29.27 0 29.27 29.27 0 29.27 29.27 0"/>
    </g>
  </g>
</svg>